<mxfile host="app.diagrams.net" modified="2024-05-05T21:39:32.696Z" agent="Mozilla/5.0 (Macintosh; Intel Mac OS X 10_15_7) AppleWebKit/537.36 (KHTML, like Gecko) Chrome/124.0.0.0 Safari/537.36" etag="27bwhuehda6j3FpEws-z" version="24.2.5" type="device">
  <diagram name="Pagina-1" id="QMbBPEFxshU9AOQJG7Jn">
    <mxGraphModel dx="930" dy="423" grid="1" gridSize="10" guides="1" tooltips="1" connect="1" arrows="1" fold="1" page="1" pageScale="1" pageWidth="827" pageHeight="1169" math="0" shadow="0">
      <root>
        <mxCell id="0" />
        <mxCell id="1" parent="0" />
        <mxCell id="deQKDIumI5_GzSjwK9UW-1" value="&lt;span style=&quot;text-wrap: nowrap;&quot;&gt;CheckSignup&lt;/span&gt;" style="shape=umlLifeline;perimeter=lifelinePerimeter;whiteSpace=wrap;html=1;container=0;dropTarget=0;collapsible=0;recursiveResize=0;outlineConnect=0;portConstraint=eastwest;newEdgeStyle={&quot;edgeStyle&quot;:&quot;elbowEdgeStyle&quot;,&quot;elbow&quot;:&quot;vertical&quot;,&quot;curved&quot;:0,&quot;rounded&quot;:0};" vertex="1" parent="1">
          <mxGeometry x="105" y="59" width="155" height="381" as="geometry" />
        </mxCell>
        <mxCell id="deQKDIumI5_GzSjwK9UW-2" value="" style="html=1;points=[];perimeter=orthogonalPerimeter;outlineConnect=0;targetShapes=umlLifeline;portConstraint=eastwest;newEdgeStyle={&quot;edgeStyle&quot;:&quot;elbowEdgeStyle&quot;,&quot;elbow&quot;:&quot;vertical&quot;,&quot;curved&quot;:0,&quot;rounded&quot;:0};" vertex="1" parent="deQKDIumI5_GzSjwK9UW-1">
          <mxGeometry x="72.5" y="70" width="10" height="300" as="geometry" />
        </mxCell>
        <mxCell id="deQKDIumI5_GzSjwK9UW-3" value="UserDAO" style="shape=umlLifeline;perimeter=lifelinePerimeter;whiteSpace=wrap;html=1;container=0;dropTarget=0;collapsible=0;recursiveResize=0;outlineConnect=0;portConstraint=eastwest;newEdgeStyle={&quot;edgeStyle&quot;:&quot;elbowEdgeStyle&quot;,&quot;elbow&quot;:&quot;vertical&quot;,&quot;curved&quot;:0,&quot;rounded&quot;:0};" vertex="1" parent="1">
          <mxGeometry x="404" y="59" width="100" height="381" as="geometry" />
        </mxCell>
        <mxCell id="deQKDIumI5_GzSjwK9UW-4" value="" style="html=1;points=[];perimeter=orthogonalPerimeter;outlineConnect=0;targetShapes=umlLifeline;portConstraint=eastwest;newEdgeStyle={&quot;edgeStyle&quot;:&quot;elbowEdgeStyle&quot;,&quot;elbow&quot;:&quot;vertical&quot;,&quot;curved&quot;:0,&quot;rounded&quot;:0};" vertex="1" parent="deQKDIumI5_GzSjwK9UW-3">
          <mxGeometry x="45" y="90" width="10" height="260" as="geometry" />
        </mxCell>
        <mxCell id="deQKDIumI5_GzSjwK9UW-5" value="DoPOST" style="html=1;verticalAlign=bottom;startArrow=circle;startFill=1;endArrow=open;startSize=6;endSize=8;curved=0;rounded=0;" edge="1" parent="1">
          <mxGeometry width="80" relative="1" as="geometry">
            <mxPoint x="97" y="149" as="sourcePoint" />
            <mxPoint x="177" y="149" as="targetPoint" />
            <mxPoint as="offset" />
          </mxGeometry>
        </mxCell>
        <mxCell id="deQKDIumI5_GzSjwK9UW-6" value="" style="endArrow=classic;html=1;rounded=0;exitX=1.02;exitY=0.085;exitDx=0;exitDy=0;exitPerimeter=0;" edge="1" parent="1" target="deQKDIumI5_GzSjwK9UW-3">
          <mxGeometry width="50" height="50" relative="1" as="geometry">
            <mxPoint x="189.99999999999986" y="170.00000000000006" as="sourcePoint" />
            <mxPoint x="350" y="170" as="targetPoint" />
          </mxGeometry>
        </mxCell>
        <mxCell id="deQKDIumI5_GzSjwK9UW-7" value="Login.html" style="shape=umlLifeline;perimeter=lifelinePerimeter;whiteSpace=wrap;html=1;container=0;dropTarget=0;collapsible=0;recursiveResize=0;outlineConnect=0;portConstraint=eastwest;newEdgeStyle={&quot;edgeStyle&quot;:&quot;elbowEdgeStyle&quot;,&quot;elbow&quot;:&quot;vertical&quot;,&quot;curved&quot;:0,&quot;rounded&quot;:0};" vertex="1" parent="1">
          <mxGeometry x="570" y="59" width="90" height="381" as="geometry" />
        </mxCell>
        <mxCell id="deQKDIumI5_GzSjwK9UW-8" value="" style="html=1;points=[];perimeter=orthogonalPerimeter;outlineConnect=0;targetShapes=umlLifeline;portConstraint=eastwest;newEdgeStyle={&quot;edgeStyle&quot;:&quot;elbowEdgeStyle&quot;,&quot;elbow&quot;:&quot;vertical&quot;,&quot;curved&quot;:0,&quot;rounded&quot;:0};" vertex="1" parent="deQKDIumI5_GzSjwK9UW-7">
          <mxGeometry x="40" y="340" width="10" height="30" as="geometry" />
        </mxCell>
        <mxCell id="deQKDIumI5_GzSjwK9UW-9" value="CheckSignup" style="text;html=1;align=center;verticalAlign=middle;resizable=0;points=[];autosize=1;strokeColor=none;fillColor=none;" vertex="1" parent="1">
          <mxGeometry x="55" y="20" width="90" height="30" as="geometry" />
        </mxCell>
        <mxCell id="deQKDIumI5_GzSjwK9UW-10" value="Post&lt;div&gt;/CheckSignup&lt;/div&gt;&lt;div&gt;username&lt;/div&gt;&lt;div&gt;email&lt;/div&gt;&lt;div&gt;password&lt;/div&gt;&lt;div&gt;repeatPassword&lt;/div&gt;&lt;div&gt;&lt;br&gt;&lt;/div&gt;&lt;div&gt;From: SignUp.html&lt;/div&gt;&lt;div&gt;&lt;br&gt;&lt;/div&gt;" style="text;html=1;align=center;verticalAlign=middle;resizable=0;points=[];autosize=1;strokeColor=none;fillColor=none;" vertex="1" parent="1">
          <mxGeometry x="50" y="159" width="120" height="140" as="geometry" />
        </mxCell>
        <mxCell id="deQKDIumI5_GzSjwK9UW-11" value="&lt;font style=&quot;font-size: 10px;&quot;&gt;new UserDao()&lt;/font&gt;" style="text;html=1;align=center;verticalAlign=middle;resizable=0;points=[];autosize=1;strokeColor=none;fillColor=none;" vertex="1" parent="1">
          <mxGeometry x="205" y="145" width="90" height="30" as="geometry" />
        </mxCell>
        <mxCell id="deQKDIumI5_GzSjwK9UW-12" value="" style="endArrow=classic;html=1;rounded=0;exitX=0.025;exitY=1.03;exitDx=0;exitDy=0;exitPerimeter=0;" edge="1" parent="1">
          <mxGeometry width="50" height="50" relative="1" as="geometry">
            <mxPoint x="187" y="204.21999999999997" as="sourcePoint" />
            <mxPoint x="453" y="204.21999999999997" as="targetPoint" />
          </mxGeometry>
        </mxCell>
        <mxCell id="deQKDIumI5_GzSjwK9UW-13" value="&lt;span style=&quot;font-size: 10px;&quot;&gt;getUserByEmail(email)&lt;/span&gt;" style="text;html=1;align=center;verticalAlign=middle;resizable=0;points=[];autosize=1;strokeColor=none;fillColor=none;" vertex="1" parent="1">
          <mxGeometry x="253" y="178" width="130" height="30" as="geometry" />
        </mxCell>
        <mxCell id="deQKDIumI5_GzSjwK9UW-18" value="user" style="html=1;verticalAlign=bottom;endArrow=open;dashed=1;endSize=8;edgeStyle=elbowEdgeStyle;elbow=vertical;curved=0;rounded=0;" edge="1" parent="1">
          <mxGeometry x="0.4545" relative="1" as="geometry">
            <mxPoint x="188" y="224" as="targetPoint" />
            <Array as="points" />
            <mxPoint x="448" y="224" as="sourcePoint" />
            <mxPoint as="offset" />
          </mxGeometry>
        </mxCell>
        <mxCell id="deQKDIumI5_GzSjwK9UW-20" value="[user=!=null]" style="text;html=1;align=center;verticalAlign=middle;resizable=0;points=[];autosize=1;strokeColor=none;fillColor=none;" vertex="1" parent="1">
          <mxGeometry x="190" y="230" width="90" height="30" as="geometry" />
        </mxCell>
        <mxCell id="deQKDIumI5_GzSjwK9UW-21" value="" style="endArrow=classic;html=1;rounded=0;" edge="1" parent="1">
          <mxGeometry width="50" height="50" relative="1" as="geometry">
            <mxPoint x="185" y="254" as="sourcePoint" />
            <mxPoint x="699.5" y="254" as="targetPoint" />
          </mxGeometry>
        </mxCell>
        <mxCell id="deQKDIumI5_GzSjwK9UW-22" value="TemplateEngine" style="shape=umlLifeline;perimeter=lifelinePerimeter;whiteSpace=wrap;html=1;container=0;dropTarget=0;collapsible=0;recursiveResize=0;outlineConnect=0;portConstraint=eastwest;newEdgeStyle={&quot;edgeStyle&quot;:&quot;elbowEdgeStyle&quot;,&quot;elbow&quot;:&quot;vertical&quot;,&quot;curved&quot;:0,&quot;rounded&quot;:0};" vertex="1" parent="1">
          <mxGeometry x="750" y="59" width="119" height="302" as="geometry" />
        </mxCell>
        <mxCell id="deQKDIumI5_GzSjwK9UW-23" value="" style="html=1;points=[];perimeter=orthogonalPerimeter;outlineConnect=0;targetShapes=umlLifeline;portConstraint=eastwest;newEdgeStyle={&quot;edgeStyle&quot;:&quot;elbowEdgeStyle&quot;,&quot;elbow&quot;:&quot;vertical&quot;,&quot;curved&quot;:0,&quot;rounded&quot;:0};" vertex="1" parent="deQKDIumI5_GzSjwK9UW-22">
          <mxGeometry x="54" y="140" width="10" height="162" as="geometry" />
        </mxCell>
        <mxCell id="deQKDIumI5_GzSjwK9UW-24" value="ctx" style="shape=umlLifeline;perimeter=lifelinePerimeter;whiteSpace=wrap;html=1;container=0;dropTarget=0;collapsible=0;recursiveResize=0;outlineConnect=0;portConstraint=eastwest;newEdgeStyle={&quot;edgeStyle&quot;:&quot;elbowEdgeStyle&quot;,&quot;elbow&quot;:&quot;vertical&quot;,&quot;curved&quot;:0,&quot;rounded&quot;:0};" vertex="1" parent="1">
          <mxGeometry x="680" y="59" width="50" height="301" as="geometry" />
        </mxCell>
        <mxCell id="deQKDIumI5_GzSjwK9UW-25" value="" style="html=1;points=[];perimeter=orthogonalPerimeter;outlineConnect=0;targetShapes=umlLifeline;portConstraint=eastwest;newEdgeStyle={&quot;edgeStyle&quot;:&quot;elbowEdgeStyle&quot;,&quot;elbow&quot;:&quot;vertical&quot;,&quot;curved&quot;:0,&quot;rounded&quot;:0};" vertex="1" parent="deQKDIumI5_GzSjwK9UW-24">
          <mxGeometry x="20" y="140" width="10" height="140" as="geometry" />
        </mxCell>
        <mxCell id="deQKDIumI5_GzSjwK9UW-26" value="setVariable(errorMsg)" style="text;html=1;align=center;verticalAlign=middle;resizable=0;points=[];autosize=1;strokeColor=none;fillColor=none;" vertex="1" parent="1">
          <mxGeometry x="280" y="230" width="140" height="30" as="geometry" />
        </mxCell>
        <mxCell id="deQKDIumI5_GzSjwK9UW-27" value="" style="endArrow=classic;html=1;rounded=0;" edge="1" parent="1">
          <mxGeometry width="50" height="50" relative="1" as="geometry">
            <mxPoint x="190" y="269" as="sourcePoint" />
            <mxPoint x="800" y="269" as="targetPoint" />
          </mxGeometry>
        </mxCell>
        <mxCell id="deQKDIumI5_GzSjwK9UW-29" value="process(ctx, &quot;SignUp.html&quot;)" style="text;html=1;align=center;verticalAlign=middle;resizable=0;points=[];autosize=1;strokeColor=none;fillColor=none;" vertex="1" parent="1">
          <mxGeometry x="244" y="248" width="170" height="30" as="geometry" />
        </mxCell>
        <mxCell id="deQKDIumI5_GzSjwK9UW-30" value="" style="endArrow=classic;html=1;rounded=0;exitX=0.025;exitY=1.03;exitDx=0;exitDy=0;exitPerimeter=0;" edge="1" parent="1">
          <mxGeometry width="50" height="50" relative="1" as="geometry">
            <mxPoint x="187" y="294.72" as="sourcePoint" />
            <mxPoint x="449" y="294.72" as="targetPoint" />
          </mxGeometry>
        </mxCell>
        <mxCell id="deQKDIumI5_GzSjwK9UW-31" value="&lt;font style=&quot;font-size: 11px;&quot;&gt;getUserByUsername(username)&lt;/font&gt;" style="text;html=1;align=center;verticalAlign=middle;resizable=0;points=[];autosize=1;strokeColor=none;fillColor=none;" vertex="1" parent="1">
          <mxGeometry x="224" y="269" width="180" height="30" as="geometry" />
        </mxCell>
        <mxCell id="deQKDIumI5_GzSjwK9UW-32" value="user" style="html=1;verticalAlign=bottom;endArrow=open;dashed=1;endSize=8;edgeStyle=elbowEdgeStyle;elbow=vertical;curved=0;rounded=0;" edge="1" parent="1">
          <mxGeometry x="0.4545" relative="1" as="geometry">
            <mxPoint x="190" y="310" as="targetPoint" />
            <Array as="points" />
            <mxPoint x="450" y="310" as="sourcePoint" />
            <mxPoint as="offset" />
          </mxGeometry>
        </mxCell>
        <mxCell id="deQKDIumI5_GzSjwK9UW-33" value="[user=!=null]" style="text;html=1;align=center;verticalAlign=middle;resizable=0;points=[];autosize=1;strokeColor=none;fillColor=none;" vertex="1" parent="1">
          <mxGeometry x="195" y="305" width="90" height="30" as="geometry" />
        </mxCell>
        <mxCell id="deQKDIumI5_GzSjwK9UW-34" value="" style="endArrow=classic;html=1;rounded=0;" edge="1" parent="1">
          <mxGeometry width="50" height="50" relative="1" as="geometry">
            <mxPoint x="188" y="329" as="sourcePoint" />
            <mxPoint x="702.5" y="329" as="targetPoint" />
          </mxGeometry>
        </mxCell>
        <mxCell id="deQKDIumI5_GzSjwK9UW-35" value="setVariable(errorMsg)" style="text;html=1;align=center;verticalAlign=middle;resizable=0;points=[];autosize=1;strokeColor=none;fillColor=none;" vertex="1" parent="1">
          <mxGeometry x="285" y="305" width="140" height="30" as="geometry" />
        </mxCell>
        <mxCell id="deQKDIumI5_GzSjwK9UW-36" value="" style="endArrow=classic;html=1;rounded=0;" edge="1" parent="1">
          <mxGeometry width="50" height="50" relative="1" as="geometry">
            <mxPoint x="190" y="344" as="sourcePoint" />
            <mxPoint x="800" y="344" as="targetPoint" />
          </mxGeometry>
        </mxCell>
        <mxCell id="deQKDIumI5_GzSjwK9UW-37" value="process(ctx, &quot;SignUp.html&quot;)" style="text;html=1;align=center;verticalAlign=middle;resizable=0;points=[];autosize=1;strokeColor=none;fillColor=none;" vertex="1" parent="1">
          <mxGeometry x="249" y="323" width="170" height="30" as="geometry" />
        </mxCell>
        <mxCell id="deQKDIumI5_GzSjwK9UW-38" value="" style="endArrow=classic;html=1;rounded=0;exitX=0.025;exitY=1.03;exitDx=0;exitDy=0;exitPerimeter=0;" edge="1" parent="1">
          <mxGeometry width="50" height="50" relative="1" as="geometry">
            <mxPoint x="188" y="380" as="sourcePoint" />
            <mxPoint x="454" y="380" as="targetPoint" />
          </mxGeometry>
        </mxCell>
        <mxCell id="deQKDIumI5_GzSjwK9UW-39" value="registerUser(username, email, password)" style="text;html=1;align=center;verticalAlign=middle;resizable=0;points=[];autosize=1;strokeColor=none;fillColor=none;" vertex="1" parent="1">
          <mxGeometry x="187" y="356" width="240" height="30" as="geometry" />
        </mxCell>
        <mxCell id="deQKDIumI5_GzSjwK9UW-40" value="user" style="html=1;verticalAlign=bottom;endArrow=open;dashed=1;endSize=8;edgeStyle=elbowEdgeStyle;elbow=vertical;curved=0;rounded=0;" edge="1" parent="1">
          <mxGeometry x="0.4545" relative="1" as="geometry">
            <mxPoint x="187" y="398" as="targetPoint" />
            <Array as="points" />
            <mxPoint x="447" y="398" as="sourcePoint" />
            <mxPoint as="offset" />
          </mxGeometry>
        </mxCell>
        <mxCell id="deQKDIumI5_GzSjwK9UW-41" value="" style="endArrow=classic;html=1;rounded=0;" edge="1" parent="1">
          <mxGeometry width="50" height="50" relative="1" as="geometry">
            <mxPoint x="187" y="420" as="sourcePoint" />
            <mxPoint x="610" y="420" as="targetPoint" />
          </mxGeometry>
        </mxCell>
        <mxCell id="deQKDIumI5_GzSjwK9UW-42" value="redirect" style="text;html=1;align=center;verticalAlign=middle;resizable=0;points=[];autosize=1;strokeColor=none;fillColor=none;" vertex="1" parent="1">
          <mxGeometry x="269" y="398" width="60" height="30" as="geometry" />
        </mxCell>
        <mxCell id="deQKDIumI5_GzSjwK9UW-43" value="[user!=null]" style="text;html=1;align=center;verticalAlign=middle;resizable=0;points=[];autosize=1;strokeColor=none;fillColor=none;" vertex="1" parent="1">
          <mxGeometry x="183" y="397" width="80" height="30" as="geometry" />
        </mxCell>
      </root>
    </mxGraphModel>
  </diagram>
</mxfile>
